<svg xmlns="http://www.w3.org/2000/svg" viewBox="0 0 570 200"><defs><style>.cls-1{fill:#231f20;}.cls-2{fill:#ee4c2a;}.cls-3{fill:#ef502a;}.cls-4{fill:#ef542b;}.cls-5{fill:#ef572b;}.cls-6{fill:#ef5b2c;}.cls-7{fill:#ef5e2c;}.cls-8{fill:#ef612c;}.cls-9{fill:#f0652d;}.cls-10{fill:#f0682d;}.cls-11{fill:#f06b2e;}.cls-12{fill:#f06e2e;}.cls-13{fill:#f0712f;}.cls-14{fill:#f1742f;}.cls-15{fill:#f17730;}.cls-16{fill:#f17931;}.cls-17{fill:#f17c31;}.cls-18{fill:#f17f32;}.cls-19{fill:#f28132;}.cls-20{fill:#f28433;}.cls-21{fill:#f28733;}.cls-22{fill:#f28934;}.cls-23{fill:#f28c34;}.cls-24{fill:#f38e35;}.cls-25{fill:#f39136;}.cls-26{fill:#f39436;}.cls-27{fill:#f39637;}.cls-28{fill:#f49938;}.cls-29{fill:#f49c38;}.cls-30{fill:#f49e39;}.cls-31{fill:#f4a139;}.cls-32{fill:#f5a43a;}.cls-33{fill:#f5a63b;}.cls-34{fill:#f5a93b;}.cls-35{fill:#f6ac3c;}.cls-36{fill:#f6af3d;}.cls-37{fill:#f6b13d;}.cls-38{fill:#f7b43e;}.cls-39{fill:#f7b73f;}.cls-40{fill:#f7ba3f;}.cls-41{fill:#f8bc40;}.cls-42{fill:#f8bf41;}.cls-43{fill:#f8c242;}.cls-44{fill:#f8c542;}.cls-45{fill:#f9c743;}.cls-46{fill:#f9ca44;}.cls-47{fill:#facd44;}.cls-48{fill:#fad045;}.cls-49{fill:#fad246;}.cls-50{fill:#fad546;}.cls-51{fill:#fbd847;}.cls-52{fill:#fbda48;}.cls-53{fill:#fcdd49;}</style></defs><g id="Layer_5" data-name="Layer 5"><path class="cls-1" d="M234,133.46c-17.8,0-31.36-13.47-31.31-33.2.05-19.53,13.27-33.4,31.57-33.36,17.79,0,31.36,13.37,31.31,33.11C265.55,119.53,252.33,133.51,234,133.46Zm0-60.73c-14.31,0-24.67,11-24.71,27.14,0,16.46,10.47,27.73,25,27.77,14.21,0,24.56-11.09,24.6-27.24C259,83.94,248.59,72.77,234.07,72.73Z"/><path class="cls-1" d="M298.1,84.44c12.68,0,20.93,10.07,20.9,24.28,0,14.52-9.67,24.93-23.17,24.89a30.15,30.15,0,0,1-11.44-2.48l-.07,25-6.33,0,.17-70.85,6.34-1.32s0,5.93,0,6.24A20.09,20.09,0,0,1,298.1,84.44Zm-13.7,39.74a19.62,19.62,0,0,0,11.75,3.71c10,0,16.28-8,16.31-19.08,0-10.84-5.89-18.52-15.4-18.55a18.94,18.94,0,0,0-12.59,5.19C284.47,95.14,284.4,124.18,284.4,124.18Z"/><path class="cls-1" d="M355.88,126.81c-3.18,3.88-8.2,6.93-13.72,6.92-8.59,0-14.81-5.56-14.8-13,0-8.49,6.69-15.43,28.47-16.6,0,0,0-2.45,0-2.76,0-7.36-3.25-11.15-11-11.17-5.11,0-11.35,2.63-15.35,5.58l-1.42-5.93a33,33,0,0,1,17.4-5.58c10.84,0,16.86,5,16.73,16.81,0,.3-.06,22.49-.06,22.49,0,3.38.6,4.81,4.69,4.72l-.42,5.21c-6.14.39-9.5-2.07-10.21-6.67Zm-.06-18.41C339.76,110.2,334,113.77,334,120c0,5,4.07,8.19,9.59,8.2,5,0,9.31-2.84,12.18-6.11Z"/><path class="cls-1" d="M396,133.86c-14.11,0-22.88-10.18-22.85-24.7S383,84.34,396.26,84.37a26.67,26.67,0,0,1,14.61,4l-1.65,5.72a23.72,23.72,0,0,0-13-3.82c-10.13,0-16.48,7.53-16.51,18.67,0,11.46,6.6,18.94,16.52,19a24.27,24.27,0,0,0,13-3.85l1.32,5.83A28.09,28.09,0,0,1,396,133.86Z"/><path class="cls-1" d="M427.85,85.78,427.77,116c0,8.18,3.24,11.87,10.1,11.89,5.41,0,10.64-2.73,14.43-6.61l.09-35.48,6.33,0-.11,46.82L452.27,134l0-7.57c-4.82,4.9-11,7.54-16.18,7.53-9.1,0-14.71-5.87-14.68-16.09l.08-32.1Z"/><path class="cls-1" d="M485.7,134.08a29.8,29.8,0,0,1-15.33-4.23l1.75-5.82a25.72,25.72,0,0,0,13.8,4.33c5.62,0,10.53-2.74,10.55-7.85,0-5.63-5.92-7.28-11.74-9.13-6.44-2-13.58-5.15-13.56-13.33,0-8.48,7.08-13.47,15.88-13.45a31.93,31.93,0,0,1,14.2,3.51l-1.86,5.72a27.82,27.82,0,0,0-12.77-3.51c-5.72,0-9.41,2.64-9.42,7.14,0,5.31,5.5,7,11.53,8.82,6.64,2,13.79,5,13.77,13.73S495.1,134.1,485.7,134.08Z"/><circle class="cls-2" cx="102.98" cy="95.91" r="8.55"/><circle class="cls-3" cx="100.17" cy="104.95" r="8.43"/><circle class="cls-4" cx="105.15" cy="113.11" r="8.3"/><circle class="cls-5" cx="114.34" cy="115.49" r="8.18"/><circle class="cls-6" cx="122.88" cy="111.19" r="8.05"/><circle class="cls-7" cx="126.91" cy="102.38" r="7.93"/><circle class="cls-8" cx="125.17" cy="93.09" r="7.8"/><circle class="cls-9" cx="118.12" cy="86.18" r="7.68"/><circle class="cls-10" cx="108.83" cy="84.01" r="7.56"/><circle class="cls-11" cx="99.7" cy="86.71" r="7.43"/><circle class="cls-12" cx="92.85" cy="93.93" r="7.31"/><circle class="cls-13" cx="90.07" cy="103.13" r="7.18"/><circle class="cls-14" cx="91.47" cy="112.52" r="7.06"/><circle class="cls-15" cx="96.98" cy="120.63" r="6.94"/><circle class="cls-16" cx="105.44" cy="125.81" r="6.81"/><circle class="cls-17" cx="114.86" cy="127.37" r="6.69"/><circle class="cls-18" cx="124.18" cy="125.37" r="6.56"/><circle class="cls-19" cx="132.31" cy="119.88" r="6.44"/><circle class="cls-20" cx="138.03" cy="111.67" r="6.32"/><circle class="cls-21" cx="140.66" cy="102.4" r="6.19"/><circle class="cls-22" cx="140.24" cy="92.89" r="6.07"/><circle class="cls-23" cx="136.81" cy="83.92" r="5.94"/><circle class="cls-24" cx="130.42" cy="76.26" r="5.82"/><circle class="cls-25" cx="122.02" cy="70.89" r="5.7"/><circle class="cls-26" cx="112.77" cy="68.16" r="5.57"/><circle class="cls-27" cx="103.23" cy="68.04" r="5.45"/><circle class="cls-28" cx="93.99" cy="70.5" r="5.33"/><circle class="cls-29" cx="85.6" cy="75.5" r="5.2"/><circle class="cls-30" cx="78.68" cy="82.89" r="5.08"/><circle class="cls-31" cx="73.93" cy="91.55" r="4.95"/><circle class="cls-32" cx="71.43" cy="100.85" r="4.83"/><circle class="cls-33" cx="71.16" cy="110.39" r="4.71"/><circle class="cls-34" cx="73.08" cy="119.75" r="4.58"/><circle class="cls-35" cx="77.18" cy="128.51" r="4.46"/><circle class="cls-36" cx="83.44" cy="136.26" r="4.34"/><circle class="cls-37" cx="91.44" cy="142.47" r="4.21"/><circle class="cls-38" cx="100.27" cy="146.76" r="4.09"/><circle class="cls-39" cx="109.6" cy="149.13" r="3.97"/><circle class="cls-40" cx="119.14" cy="149.6" r="3.85"/><circle class="cls-41" cx="128.58" cy="148.19" r="3.72"/><circle class="cls-42" cx="137.63" cy="144.92" r="3.6"/><circle class="cls-43" cx="145.97" cy="139.8" r="3.48"/><circle class="cls-44" cx="153.31" cy="132.86" r="3.36"/><circle class="cls-45" cx="159.19" cy="124.67" r="3.23"/><circle class="cls-46" cx="163.42" cy="115.82" r="3.11"/><circle class="cls-47" cx="166.01" cy="106.53" r="2.99"/><circle class="cls-48" cx="166.98" cy="97.01" r="2.87"/><circle class="cls-49" cx="166.34" cy="87.49" r="2.75"/><circle class="cls-50" cx="164.1" cy="78.18" r="2.63"/><circle class="cls-51" cx="160.28" cy="69.31" r="2.51"/><circle class="cls-52" cx="154.89" cy="61.09" r="2.39"/><circle class="cls-53" cx="147.94" cy="53.75" r="2.27"/><circle class="cls-2" cx="110.5" cy="102.12" r="15"/></g></svg>