<svg xmlns="http://www.w3.org/2000/svg" viewBox="0 0 32 32"><defs><style>.cls-1{fill:#ee4c2a;}.cls-2{fill:#ef502a;}.cls-3{fill:#ef542b;}.cls-4{fill:#ef572b;}.cls-5{fill:#ef5b2c;}.cls-6{fill:#ef5e2c;}.cls-7{fill:#ef612c;}.cls-8{fill:#f0652d;}.cls-9{fill:#f0682d;}.cls-10{fill:#f06b2e;}.cls-11{fill:#f06e2e;}.cls-12{fill:#f0712f;}.cls-13{fill:#f1742f;}.cls-14{fill:#f17730;}.cls-15{fill:#f17931;}.cls-16{fill:#f17c31;}.cls-17{fill:#f17f32;}.cls-18{fill:#f28132;}.cls-19{fill:#f28433;}.cls-20{fill:#f28733;}.cls-21{fill:#f28934;}.cls-22{fill:#f28c34;}.cls-23{fill:#f38e35;}.cls-24{fill:#f39136;}.cls-25{fill:#f39436;}.cls-26{fill:#f39637;}.cls-27{fill:#f49938;}.cls-28{fill:#f49c38;}.cls-29{fill:#f49e39;}.cls-30{fill:#f4a139;}.cls-31{fill:#f5a43a;}.cls-32{fill:#f5a63b;}.cls-33{fill:#f5a93b;}.cls-34{fill:#f6ac3c;}.cls-35{fill:#f6af3d;}.cls-36{fill:#f6b13d;}.cls-37{fill:#f7b43e;}.cls-38{fill:#f7b73f;}.cls-39{fill:#f7ba3f;}.cls-40{fill:#f8bc40;}.cls-41{fill:#f8bf41;}.cls-42{fill:#f8c242;}.cls-43{fill:#f8c542;}.cls-44{fill:#f9c743;}.cls-45{fill:#f9ca44;}.cls-46{fill:#facd44;}.cls-47{fill:#fad045;}.cls-48{fill:#fad246;}.cls-49{fill:#fad546;}.cls-50{fill:#fbd847;}.cls-51{fill:#fbda48;}.cls-52{fill:#fcdd49;}</style></defs><g id="Layer_5" data-name="Layer 5"><circle class="cls-1" cx="11.46" cy="14.03" r="2.56"/><circle class="cls-2" cx="10.62" cy="16.74" r="2.53"/><circle class="cls-3" cx="12.11" cy="19.19" r="2.49"/><circle class="cls-4" cx="14.87" cy="19.9" r="2.45"/><circle class="cls-5" cx="17.43" cy="18.62" r="2.41"/><circle class="cls-6" cx="18.63" cy="15.97" r="2.38"/><circle class="cls-7" cx="18.11" cy="13.19" r="2.34"/><circle class="cls-8" cx="16" cy="11.12" r="2.3"/><circle class="cls-9" cx="13.21" cy="10.47" r="2.27"/><circle class="cls-10" cx="10.48" cy="11.28" r="2.23"/><circle class="cls-11" cx="8.42" cy="13.44" r="2.19"/><circle class="cls-12" cx="7.59" cy="16.2" r="2.15"/><circle class="cls-13" cx="8.01" cy="19.01" r="2.12"/><circle class="cls-14" cx="9.66" cy="21.44" r="2.08"/><circle class="cls-15" cx="12.2" cy="23" r="2.04"/><circle class="cls-16" cx="15.02" cy="23.46" r="2"/><circle class="cls-17" cx="17.82" cy="22.87" r="1.97"/><circle class="cls-18" cx="20.25" cy="21.22" r="1.93"/><circle class="cls-19" cx="21.97" cy="18.76" r="1.89"/><circle class="cls-20" cx="22.76" cy="15.98" r="1.86"/><circle class="cls-21" cx="22.63" cy="13.13" r="1.82"/><circle class="cls-22" cx="21.6" cy="10.44" r="1.78"/><circle class="cls-23" cx="19.69" cy="8.14" r="1.74"/><circle class="cls-24" cx="17.17" cy="6.53" r="1.71"/><circle class="cls-25" cx="14.39" cy="5.71" r="1.67"/><circle class="cls-26" cx="11.54" cy="5.68" r="1.63"/><circle class="cls-27" cx="8.76" cy="6.42" r="1.6"/><circle class="cls-28" cx="6.25" cy="7.91" r="1.56"/><circle class="cls-29" cx="4.18" cy="10.13" r="1.52"/><circle class="cls-30" cx="2.75" cy="12.73" r="1.49"/><circle class="cls-31" cx="2" cy="15.52" r="1.45"/><circle class="cls-32" cx="1.92" cy="18.38" r="1.41"/><circle class="cls-33" cx="2.5" cy="21.18" r="1.37"/><circle class="cls-34" cx="3.73" cy="23.81" r="1.34"/><circle class="cls-35" cx="5.6" cy="26.13" r="1.3"/><circle class="cls-36" cx="8" cy="27.99" r="1.26"/><circle class="cls-37" cx="10.65" cy="29.28" r="1.23"/><circle class="cls-38" cx="13.44" cy="29.99" r="1.19"/><circle class="cls-39" cx="16.3" cy="30.13" r="1.15"/><circle class="cls-40" cx="19.14" cy="29.71" r="1.12"/><circle class="cls-41" cx="21.85" cy="28.73" r="1.08"/><circle class="cls-42" cx="24.35" cy="27.19" r="1.04"/><circle class="cls-43" cx="26.55" cy="25.11" r="1.01"/><circle class="cls-44" cx="28.31" cy="22.66" r="0.97"/><circle class="cls-45" cx="29.58" cy="20" r="0.93"/><circle class="cls-46" cx="30.36" cy="17.22" r="0.9"/><circle class="cls-47" cx="30.65" cy="14.36" r="0.86"/><circle class="cls-48" cx="30.46" cy="11.51" r="0.82"/><circle class="cls-49" cx="29.78" cy="8.72" r="0.79"/><circle class="cls-50" cx="28.64" cy="6.06" r="0.75"/><circle class="cls-51" cx="27.02" cy="3.6" r="0.72"/><circle class="cls-52" cx="24.94" cy="1.4" r="0.68"/><circle class="cls-1" cx="13.71" cy="15.9" r="4.5"/></g></svg>