<svg xmlns="http://www.w3.org/2000/svg" viewBox="0 0 570 200"><defs><style>.cls-2{fill:#ee4c2a}</style></defs><g id="Layer_5" data-name="Layer 5"><path d="M234 133.46c-17.8 0-31.36-13.47-31.31-33.2.05-19.53 13.27-33.4 31.57-33.36 17.79 0 31.36 13.37 31.31 33.11-.02 19.52-13.24 33.5-31.57 33.45zm0-60.73c-14.31 0-24.67 11-24.71 27.14 0 16.46 10.47 27.73 25 27.77 14.21 0 24.56-11.09 24.6-27.24.11-16.46-10.3-27.63-24.82-27.67zm64.1 11.71c12.68 0 20.93 10.07 20.9 24.28 0 14.52-9.67 24.93-23.17 24.89a30.15 30.15 0 01-11.44-2.48l-.07 25h-6.33l.17-70.85 6.34-1.32v6.24a20.09 20.09 0 0113.6-5.76zm-13.7 39.74a19.62 19.62 0 0011.75 3.71c10 0 16.28-8 16.31-19.08 0-10.84-5.89-18.52-15.4-18.55a18.94 18.94 0 00-12.59 5.19l-.07 28.73zm71.48 2.63c-3.18 3.88-8.2 6.93-13.72 6.92-8.59 0-14.81-5.56-14.8-13 0-8.49 6.69-15.43 28.47-16.6v-2.76c0-7.36-3.25-11.15-11-11.17-5.11 0-11.35 2.63-15.35 5.58l-1.42-5.93a33 33 0 0117.4-5.58c10.84 0 16.86 5 16.73 16.81l-.06 22.49c0 3.38.6 4.81 4.69 4.72l-.42 5.21c-6.14.39-9.5-2.07-10.21-6.67zm-.06-18.41C339.76 110.2 334 113.77 334 120c0 5 4.07 8.19 9.59 8.2 5 0 9.31-2.84 12.18-6.11zM396 133.86c-14.11 0-22.88-10.18-22.85-24.7s9.85-24.82 23.11-24.79a26.67 26.67 0 0114.61 4l-1.65 5.72a23.72 23.72 0 00-13-3.82c-10.13 0-16.48 7.53-16.51 18.67 0 11.46 6.6 18.94 16.52 19a24.27 24.27 0 0013-3.85l1.32 5.83a28.09 28.09 0 01-14.55 3.94zm31.85-48.08l-.08 30.22c0 8.18 3.24 11.87 10.1 11.89 5.41 0 10.64-2.73 14.43-6.61l.09-35.48h6.33l-.11 46.82-6.34 1.38v-7.57c-4.82 4.9-11 7.54-16.18 7.53-9.1 0-14.71-5.87-14.68-16.09l.08-32.1zm57.85 48.3a29.8 29.8 0 01-15.33-4.23l1.75-5.82a25.72 25.72 0 0013.8 4.33c5.62 0 10.53-2.74 10.55-7.85 0-5.63-5.92-7.28-11.74-9.13-6.44-2-13.58-5.15-13.56-13.33 0-8.48 7.08-13.47 15.88-13.45a31.93 31.93 0 0114.2 3.51l-1.86 5.72a27.82 27.82 0 00-12.77-3.51c-5.72 0-9.41 2.64-9.42 7.14 0 5.31 5.5 7 11.53 8.82 6.64 2 13.79 5 13.77 13.73s-7.4 14.09-16.8 14.07z" fill="#231f20"/><circle class="cls-2" cx="102.98" cy="95.91" r="8.55"/><circle cx="100.17" cy="104.95" r="8.43" fill="#ef502a"/><circle cx="105.15" cy="113.11" r="8.3" fill="#ef542b"/><circle cx="114.34" cy="115.49" r="8.18" fill="#ef572b"/><circle cx="122.88" cy="111.19" r="8.05" fill="#ef5b2c"/><circle cx="126.91" cy="102.38" r="7.93" fill="#ef5e2c"/><circle cx="125.17" cy="93.09" r="7.8" fill="#ef612c"/><circle cx="118.12" cy="86.18" r="7.68" fill="#f0652d"/><circle cx="108.83" cy="84.01" r="7.56" fill="#f0682d"/><circle cx="99.7" cy="86.71" r="7.43" fill="#f06b2e"/><circle cx="92.85" cy="93.93" r="7.31" fill="#f06e2e"/><circle cx="90.07" cy="103.13" r="7.18" fill="#f0712f"/><circle cx="91.47" cy="112.52" r="7.06" fill="#f1742f"/><circle cx="96.98" cy="120.63" r="6.94" fill="#f17730"/><circle cx="105.44" cy="125.81" r="6.81" fill="#f17931"/><circle cx="114.86" cy="127.37" r="6.69" fill="#f17c31"/><circle cx="124.18" cy="125.37" r="6.56" fill="#f17f32"/><circle cx="132.31" cy="119.88" r="6.44" fill="#f28132"/><circle cx="138.03" cy="111.67" r="6.32" fill="#f28433"/><circle cx="140.66" cy="102.4" r="6.19" fill="#f28733"/><circle cx="140.24" cy="92.89" r="6.07" fill="#f28934"/><circle cx="136.81" cy="83.92" r="5.94" fill="#f28c34"/><circle cx="130.42" cy="76.26" r="5.82" fill="#f38e35"/><circle cx="122.02" cy="70.89" r="5.7" fill="#f39136"/><circle cx="112.77" cy="68.16" r="5.57" fill="#f39436"/><circle cx="103.23" cy="68.04" r="5.45" fill="#f39637"/><circle cx="93.99" cy="70.5" r="5.33" fill="#f49938"/><circle cx="85.6" cy="75.5" r="5.2" fill="#f49c38"/><circle cx="78.68" cy="82.89" r="5.08" fill="#f49e39"/><circle cx="73.93" cy="91.55" r="4.95" fill="#f4a139"/><circle cx="71.43" cy="100.85" r="4.83" fill="#f5a43a"/><circle cx="71.16" cy="110.39" r="4.71" fill="#f5a63b"/><circle cx="73.08" cy="119.75" r="4.58" fill="#f5a93b"/><circle cx="77.18" cy="128.51" r="4.46" fill="#f6ac3c"/><circle cx="83.44" cy="136.26" r="4.34" fill="#f6af3d"/><circle cx="91.44" cy="142.47" r="4.21" fill="#f6b13d"/><circle cx="100.27" cy="146.76" r="4.09" fill="#f7b43e"/><circle cx="109.6" cy="149.13" r="3.97" fill="#f7b73f"/><circle cx="119.14" cy="149.6" r="3.85" fill="#f7ba3f"/><circle cx="128.58" cy="148.19" r="3.72" fill="#f8bc40"/><circle cx="137.63" cy="144.92" r="3.6" fill="#f8bf41"/><circle cx="145.97" cy="139.8" r="3.48" fill="#f8c242"/><circle cx="153.31" cy="132.86" r="3.36" fill="#f8c542"/><circle cx="159.19" cy="124.67" r="3.23" fill="#f9c743"/><circle cx="163.42" cy="115.82" r="3.11" fill="#f9ca44"/><circle cx="166.01" cy="106.53" r="2.99" fill="#facd44"/><circle cx="166.98" cy="97.01" r="2.87" fill="#fad045"/><circle cx="166.34" cy="87.49" r="2.75" fill="#fad246"/><circle cx="164.1" cy="78.18" r="2.63" fill="#fad546"/><circle cx="160.28" cy="69.31" r="2.51" fill="#fbd847"/><circle cx="154.89" cy="61.09" r="2.39" fill="#fbda48"/><circle cx="147.94" cy="53.75" r="2.27" fill="#fcdd49"/><circle class="cls-2" cx="110.5" cy="102.12" r="15"/></g></svg>