<svg xmlns="http://www.w3.org/2000/svg" viewBox="0 0 32 32"><defs><style>.cls-1{fill:#ee4c2a}</style></defs><g id="Layer_5" data-name="Layer 5"><circle class="cls-1" cx="11.46" cy="14.03" r="2.56"/><circle cx="10.62" cy="16.74" r="2.53" fill="#ef502a"/><circle cx="12.11" cy="19.19" r="2.49" fill="#ef542b"/><circle cx="14.87" cy="19.9" r="2.45" fill="#ef572b"/><circle cx="17.43" cy="18.62" r="2.41" fill="#ef5b2c"/><circle cx="18.63" cy="15.97" r="2.38" fill="#ef5e2c"/><circle cx="18.11" cy="13.19" r="2.34" fill="#ef612c"/><circle cx="16" cy="11.12" r="2.3" fill="#f0652d"/><circle cx="13.21" cy="10.47" r="2.27" fill="#f0682d"/><circle cx="10.48" cy="11.28" r="2.23" fill="#f06b2e"/><circle cx="8.42" cy="13.44" r="2.19" fill="#f06e2e"/><circle cx="7.59" cy="16.2" r="2.15" fill="#f0712f"/><circle cx="8.01" cy="19.01" r="2.12" fill="#f1742f"/><circle cx="9.66" cy="21.44" r="2.08" fill="#f17730"/><circle cx="12.2" cy="23" r="2.04" fill="#f17931"/><circle cx="15.02" cy="23.46" r="2" fill="#f17c31"/><circle cx="17.82" cy="22.87" r="1.97" fill="#f17f32"/><circle cx="20.25" cy="21.22" r="1.93" fill="#f28132"/><circle cx="21.97" cy="18.76" r="1.89" fill="#f28433"/><circle cx="22.76" cy="15.98" r="1.86" fill="#f28733"/><circle cx="22.63" cy="13.13" r="1.82" fill="#f28934"/><circle cx="21.6" cy="10.44" r="1.78" fill="#f28c34"/><circle cx="19.69" cy="8.14" r="1.74" fill="#f38e35"/><circle cx="17.17" cy="6.53" r="1.71" fill="#f39136"/><circle cx="14.39" cy="5.71" r="1.67" fill="#f39436"/><circle cx="11.54" cy="5.68" r="1.63" fill="#f39637"/><circle cx="8.76" cy="6.42" r="1.6" fill="#f49938"/><circle cx="6.25" cy="7.91" r="1.56" fill="#f49c38"/><circle cx="4.18" cy="10.13" r="1.52" fill="#f49e39"/><circle cx="2.75" cy="12.73" r="1.49" fill="#f4a139"/><circle cx="2" cy="15.52" r="1.45" fill="#f5a43a"/><circle cx="1.92" cy="18.38" r="1.41" fill="#f5a63b"/><circle cx="2.5" cy="21.18" r="1.37" fill="#f5a93b"/><circle cx="3.73" cy="23.81" r="1.34" fill="#f6ac3c"/><circle cx="5.6" cy="26.13" r="1.3" fill="#f6af3d"/><circle cx="8" cy="27.99" r="1.26" fill="#f6b13d"/><circle cx="10.65" cy="29.28" r="1.23" fill="#f7b43e"/><circle cx="13.44" cy="29.99" r="1.19" fill="#f7b73f"/><circle cx="16.3" cy="30.13" r="1.15" fill="#f7ba3f"/><circle cx="19.14" cy="29.71" r="1.12" fill="#f8bc40"/><circle cx="21.85" cy="28.73" r="1.08" fill="#f8bf41"/><circle cx="24.35" cy="27.19" r="1.04" fill="#f8c242"/><circle cx="26.55" cy="25.11" r="1.01" fill="#f8c542"/><circle cx="28.31" cy="22.66" r=".97" fill="#f9c743"/><circle cx="29.58" cy="20" r=".93" fill="#f9ca44"/><circle cx="30.36" cy="17.22" r=".9" fill="#facd44"/><circle cx="30.65" cy="14.36" r=".86" fill="#fad045"/><circle cx="30.46" cy="11.51" r=".82" fill="#fad246"/><circle cx="29.78" cy="8.72" r=".79" fill="#fad546"/><circle cx="28.64" cy="6.06" r=".75" fill="#fbd847"/><circle cx="27.02" cy="3.6" r=".72" fill="#fbda48"/><circle cx="24.94" cy="1.4" r=".68" fill="#fcdd49"/><circle class="cls-1" cx="13.71" cy="15.9" r="4.5"/></g></svg>